<svg xmlns="http://www.w3.org/2000/svg" xmlns:xlink="http://www.w3.org/1999/xlink" xml:space="preserve" version="1.1" style="shape-rendering:geometricPrecision;text-rendering:geometricPrecision;image-rendering:optimizeQuality;" viewBox="0 0 333.33 416.66249999999997" x="0px" y="0px" fill-rule="evenodd" clip-rule="evenodd"><defs><style type="text/css">
   
    .fil0 {fill:#67e4b0;fill-rule:nonzero}
   
    </style></defs><g><path class="fil0" d="M245.95 121.5c20.89,0 39.89,6.16 53.71,16.11 14.29,10.28 23.13,24.64 23.13,40.61 0,9.32 -3.04,18.12 -8.43,25.89 -4.9,7.07 -11.75,13.28 -20,18.21l2.05 25.52c0.21,2.75 -1.84,5.16 -4.59,5.37 -1.31,0.1 -2.56,-0.31 -3.51,-1.08l-26.65 -18.39c-2.25,0.35 -4.53,0.62 -6.81,0.81 -2.94,0.25 -5.91,0.38 -8.91,0.38 -20.89,0 -39.89,-6.15 -53.71,-16.11 -14.29,-10.28 -23.13,-24.65 -23.13,-40.61 0,-15.97 8.85,-30.33 23.13,-40.61 13.82,-9.95 32.82,-16.11 53.71,-16.11zm-212.27 67.17c13.82,-9.94 32.81,-16.1 53.71,-16.1 20.89,0 39.89,6.16 53.71,16.1 14.29,10.28 23.13,24.64 23.13,40.61 0,15.96 -8.85,30.33 -23.13,40.61 -13.82,9.95 -32.82,16.11 -53.71,16.11 -3,0 -5.98,-0.13 -8.92,-0.38 -2.28,-0.19 -4.55,-0.46 -6.8,-0.81l-26.65 18.39c-0.96,0.77 -2.2,1.19 -3.51,1.08 -2.75,-0.21 -4.8,-2.62 -4.59,-5.37l2.05 -25.52c-8.25,-4.93 -15.1,-11.13 -20,-18.21 -5.39,-7.77 -8.43,-16.57 -8.43,-25.9 0,-15.97 8.85,-30.33 23.13,-40.61zm14.87 -143.53c13.82,-9.95 32.82,-16.11 53.71,-16.11 20.89,0 39.89,6.16 53.71,16.1 14.29,10.29 23.13,24.64 23.13,40.61 0,15.96 -8.85,30.33 -23.13,40.61 -13.81,9.95 -32.82,16.11 -53.71,16.11 -2.99,0 -5.97,-0.13 -8.91,-0.38 -2.28,-0.19 -4.56,-0.46 -6.81,-0.81l-26.65 18.38c-0.96,0.76 -2.2,1.19 -3.51,1.08 -2.75,-0.21 -4.8,-2.62 -4.59,-5.37l2.05 -25.52c-8.24,-4.94 -15.09,-11.14 -20,-18.21 -5.39,-7.77 -8.43,-16.57 -8.43,-25.89 0,-15.97 8.85,-30.33 23.13,-40.61z"/></g></svg>